<svg width="16" height="16" viewBox="0 0 16 16" fill="none" xmlns="http://www.w3.org/2000/svg">
<g clip-path="url(#clip0_123_108)">
<rect width="16" height="16" fill="#E1DFDD"/>
<path d="M5.904 14.288C4.784 14.288 3.816 14.064 3 13.616C2.2 13.152 1.584 12.504 1.152 11.672C0.72 10.824 0.504 9.808 0.504 8.624C0.504 7.424 0.752 6.368 1.248 5.456C1.76 4.544 2.464 3.832 3.36 3.32C4.256 2.792 5.296 2.528 6.48 2.528C7.136 2.528 7.696 2.568 8.16 2.648C8.624 2.728 8.984 2.816 9.24 2.912C9.512 2.992 9.648 3.032 9.648 3.032L9.744 3.272C9.744 3.272 9.704 3.456 9.624 3.824C9.56 4.192 9.488 4.672 9.408 5.264C9.328 5.856 9.264 6.496 9.216 7.184L7.392 7.28V6.464C7.392 5.92 7.28 5.528 7.056 5.288C6.848 5.032 6.536 4.904 6.12 4.904C5.512 4.904 5.048 5.136 4.728 5.6C4.408 6.064 4.248 6.752 4.248 7.664C4.248 8.928 4.44 9.888 4.824 10.544C5.224 11.184 5.808 11.504 6.576 11.504C7.024 11.504 7.432 11.448 7.8 11.336C8.184 11.224 8.488 11.112 8.712 11C8.936 10.888 9.048 10.832 9.048 10.832L9.264 10.928L9.696 12.416C9.696 12.416 9.576 12.512 9.336 12.704C9.096 12.88 8.784 13.096 8.4 13.352C8.016 13.608 7.6 13.824 7.152 14C6.72 14.192 6.304 14.288 5.904 14.288Z" fill="black"/>
<path d="M9.984 23.904L9.072 23.04L9.12 22.728C9.584 22.28 9.936 21.816 10.176 21.336C10.432 20.872 10.608 20.304 10.704 19.632C10.816 18.976 10.872 18.152 10.872 17.16V10.296C10.872 9.784 10.816 9.432 10.704 9.24C10.592 9.032 10.368 8.928 10.032 8.928C9.872 8.928 9.712 8.944 9.552 8.976C9.392 8.992 9.312 9 9.312 9L9.48 7.392C10.024 7.312 10.584 7.224 11.16 7.128C11.752 7.032 12.304 6.936 12.816 6.84C13.344 6.744 13.768 6.672 14.088 6.624C14.408 6.56 14.568 6.528 14.568 6.528L14.808 6.984C14.632 7.4 14.488 8.56 14.376 10.464C14.28 12.368 14.232 14.992 14.232 18.336C14.232 19.456 13.856 20.512 13.104 21.504C12.352 22.496 11.312 23.296 9.984 23.904ZM12.6 4.536C11.976 4.536 11.496 4.368 11.16 4.032C10.824 3.68 10.656 3.192 10.656 2.568C10.656 1.912 10.848 1.392 11.232 1.008C11.632 0.607999 12.152 0.407999 12.792 0.407999C13.384 0.407999 13.848 0.583999 14.184 0.935999C14.536 1.272 14.712 1.752 14.712 2.376C14.712 3.032 14.52 3.56 14.136 3.96C13.752 4.344 13.24 4.536 12.6 4.536Z" fill="black"/>
</g>
<defs>
<clipPath id="clip0_123_108">
<rect width="16" height="16" fill="white"/>
</clipPath>
</defs>
</svg>
