<svg width="25" height="24" viewBox="0 0 25 24" fill="none" xmlns="http://www.w3.org/2000/svg">
<path d="M12.9968 5.8467C9.59158 5.8467 6.84489 8.594 6.84489 12C6.84489 15.406 9.59158 18.1533 12.9968 18.1533C16.4021 18.1533 19.1487 15.406 19.1487 12C19.1487 8.594 16.4021 5.8467 12.9968 5.8467ZM12.9968 16.0004C10.7963 16.0004 8.99726 14.2064 8.99726 12C8.99726 9.7936 10.7909 7.99955 12.9968 7.99955C15.2027 7.99955 16.9964 9.7936 16.9964 12C16.9964 14.2064 15.1974 16.0004 12.9968 16.0004ZM20.8353 5.595C20.8353 6.39295 20.1928 7.03024 19.4004 7.03024C18.6026 7.03024 17.9655 6.38759 17.9655 5.595C17.9655 4.80241 18.608 4.15977 19.4004 4.15977C20.1928 4.15977 20.8353 4.80241 20.8353 5.595ZM24.9098 7.05166C24.8188 5.12909 24.3798 3.42609 22.9716 2.02298C21.5688 0.619882 19.8662 0.180743 17.9441 0.0843468C15.963 -0.0281156 10.0253 -0.0281156 8.04422 0.0843468C6.12744 0.175388 4.42482 0.614526 3.01667 2.01763C1.60853 3.42073 1.17484 5.12373 1.07847 7.0463C0.966031 9.02778 0.966031 14.9669 1.07847 16.9483C1.16949 18.8709 1.60853 20.5739 3.01667 21.977C4.42482 23.3801 6.12208 23.8193 8.04422 23.9157C10.0253 24.0281 15.963 24.0281 17.9441 23.9157C19.8662 23.8246 21.5688 23.3855 22.9716 21.977C24.3744 20.5739 24.8134 18.8709 24.9098 16.9483C25.0223 14.9669 25.0223 9.03314 24.9098 7.05166ZM22.3505 19.0744C21.9329 20.1241 21.1244 20.9327 20.0697 21.3558C18.4902 21.9824 14.7423 21.8378 12.9968 21.8378C11.2514 21.8378 7.4981 21.977 5.92398 21.3558C4.87456 20.9381 4.06609 20.1294 3.64311 19.0744C3.01667 17.4946 3.16124 13.7458 3.16124 12C3.16124 10.2542 3.02203 6.50006 3.64311 4.92558C4.06073 3.87593 4.86921 3.06728 5.92398 2.6442C7.50345 2.01763 11.2514 2.16222 12.9968 2.16222C14.7423 2.16222 18.4955 2.02298 20.0697 2.6442C21.1191 3.06192 21.9275 3.87058 22.3505 4.92558C22.977 6.50541 22.8324 10.2542 22.8324 12C22.8324 13.7458 22.977 17.4999 22.3505 19.0744Z" fill="black"/>
</svg>
