<svg width="128" height="32" viewBox="0 0 128 32" fill="none" xmlns="http://www.w3.org/2000/svg">
<path d="M6.92 22.24C5.98667 22.24 5.18 22.0533 4.5 21.68C3.83333 21.2933 3.32 20.7533 2.96 20.06C2.6 19.3533 2.42 18.5067 2.42 17.52C2.42 16.52 2.62667 15.64 3.04 14.88C3.46667 14.12 4.05333 13.5267 4.8 13.1C5.54667 12.66 6.41333 12.44 7.4 12.44C7.94667 12.44 8.41333 12.4733 8.8 12.54C9.18667 12.6067 9.48667 12.68 9.7 12.76C9.92667 12.8267 10.04 12.86 10.04 12.86L10.12 13.06C10.12 13.06 10.0867 13.2133 10.02 13.52C9.96667 13.8267 9.90667 14.2267 9.84 14.72C9.77333 15.2133 9.72 15.7467 9.68 16.32L8.16 16.4V15.72C8.16 15.2667 8.06667 14.94 7.88 14.74C7.70667 14.5267 7.44667 14.42 7.1 14.42C6.59333 14.42 6.20667 14.6133 5.94 15C5.67333 15.3867 5.54 15.96 5.54 16.72C5.54 17.7733 5.7 18.5733 6.02 19.12C6.35333 19.6533 6.84 19.92 7.48 19.92C7.85333 19.92 8.19333 19.8733 8.5 19.78C8.82 19.6867 9.07333 19.5933 9.26 19.5C9.44667 19.4067 9.54 19.36 9.54 19.36L9.72 19.44L10.08 20.68C10.08 20.68 9.98 20.76 9.78 20.92C9.58 21.0667 9.32 21.2467 9 21.46C8.68 21.6733 8.33333 21.8533 7.96 22C7.6 22.16 7.25333 22.24 6.92 22.24ZM10.9547 20.64C11.3147 20.6 11.5547 20.5067 11.6747 20.36C11.7947 20.2 11.8547 19.94 11.8547 19.58V10.32C11.8547 9.88 11.7947 9.58667 11.6747 9.44C11.5547 9.28 11.3214 9.2 10.9747 9.2H10.4947L10.3947 9.08L10.5347 7.84C10.9747 7.77333 11.468 7.7 12.0147 7.62C12.5747 7.54 13.1347 7.46 13.6947 7.38C14.2547 7.3 14.748 7.22667 15.1747 7.16L15.3347 7.6C15.228 7.70667 15.1347 8.03333 15.0547 8.58C14.988 9.12667 14.9214 9.88 14.8547 10.84C14.8014 11.7867 14.7547 12.92 14.7147 14.24C14.968 14 15.2147 13.7733 15.4547 13.56C15.708 13.3333 15.9414 13.14 16.1547 12.98C16.3814 12.82 16.588 12.6933 16.7747 12.6C16.9614 12.4933 17.108 12.44 17.2147 12.44C18.2414 12.44 19.0214 12.66 19.5547 13.1C20.1014 13.54 20.3747 14.1867 20.3747 15.04C20.3747 15.24 20.348 15.5533 20.2947 15.98C20.2547 16.3933 20.208 16.8533 20.1547 17.36C20.1147 17.8533 20.068 18.32 20.0147 18.76C19.9747 19.1867 19.9547 19.5133 19.9547 19.74C19.9547 20.0467 20.0014 20.2667 20.0947 20.4C20.188 20.52 20.3414 20.58 20.5547 20.58C20.6214 20.58 20.7147 20.58 20.8347 20.58C20.9547 20.5667 21.048 20.56 21.1147 20.56L21.1547 20.64L20.9547 22.08C20.5947 22.0533 20.1814 22.0333 19.7147 22.02C19.248 22.0067 18.8747 22 18.5947 22C18.4347 22 18.2147 22.0067 17.9347 22.02C17.668 22.0333 17.388 22.0467 17.0947 22.06C16.8014 22.0733 16.528 22.0933 16.2747 22.12L16.4147 20.66C16.6947 20.6067 16.8947 20.5 17.0147 20.34C17.148 20.1667 17.2214 19.9267 17.2347 19.62L17.2947 16.46C17.308 15.9 17.228 15.5 17.0547 15.26C16.8814 15.0067 16.5947 14.88 16.1947 14.88C16.008 14.88 15.7814 14.94 15.5147 15.06C15.248 15.18 14.9747 15.3467 14.6947 15.56C14.6947 15.8933 14.688 16.24 14.6747 16.6C14.6747 16.96 14.6747 17.3933 14.6747 17.9C14.6747 18.3933 14.6747 19.02 14.6747 19.78C14.6747 20.0733 14.7147 20.28 14.7947 20.4C14.8747 20.52 15.0147 20.58 15.2147 20.58C15.268 20.58 15.3347 20.58 15.4147 20.58C15.4947 20.5667 15.5614 20.5533 15.6147 20.54L15.6747 20.68L15.4547 22.08C15.1214 22.0533 14.7214 22.0333 14.2547 22.02C13.8014 22.0067 13.428 22 13.1347 22C12.828 22 12.4547 22.0067 12.0147 22.02C11.5747 22.0333 11.1614 22.0533 10.7747 22.08L10.9547 20.64ZM21.8717 22.22L22.0717 20.72C22.4584 20.6667 22.7451 20.5467 22.9317 20.36C23.1184 20.16 23.2117 19.8733 23.2117 19.5V15.58C23.2117 15.14 23.1451 14.84 23.0117 14.68C22.8917 14.52 22.6584 14.44 22.3117 14.44C22.2451 14.44 22.1517 14.4533 22.0317 14.48C21.9117 14.5067 21.8517 14.52 21.8517 14.52L21.9917 13.14C22.5117 13.0733 23.0251 13 23.5317 12.92C24.0384 12.84 24.4984 12.7667 24.9117 12.7C25.3251 12.62 25.6517 12.56 25.8917 12.52C26.1451 12.4667 26.2717 12.44 26.2717 12.44L26.4917 12.82C26.4117 12.9667 26.3384 13.24 26.2717 13.64C26.2184 14.0267 26.1717 14.5267 26.1317 15.14C26.0917 15.74 26.0584 16.44 26.0317 17.24C26.0184 18.0267 26.0117 18.8867 26.0117 19.82C26.0117 20.1 26.0517 20.3 26.1317 20.42C26.2117 20.5267 26.3584 20.58 26.5717 20.58C26.6784 20.58 26.7917 20.5733 26.9117 20.56C27.0451 20.5467 27.1117 20.54 27.1117 20.54L27.1517 20.62L26.9517 22.08C26.9517 22.08 26.8651 22.0733 26.6917 22.06C26.5184 22.06 26.3051 22.0533 26.0517 22.04C25.7984 22.0267 25.5317 22.0133 25.2517 22C24.9851 22 24.7384 22 24.5117 22C24.1651 22 23.7851 22.0133 23.3717 22.04C22.9584 22.08 22.6051 22.12 22.3117 22.16C22.0184 22.2 21.8717 22.22 21.8717 22.22ZM24.4317 11.08C23.8984 11.08 23.4917 10.9333 23.2117 10.64C22.9451 10.3467 22.8117 9.95333 22.8117 9.46C22.8117 8.91333 22.9717 8.47333 23.2917 8.14C23.6251 7.80667 24.0584 7.64 24.5917 7.64C25.0984 7.64 25.4917 7.78667 25.7717 8.08C26.0517 8.37333 26.1917 8.77333 26.1917 9.28C26.1917 9.82667 26.0317 10.2667 25.7117 10.6C25.3917 10.92 24.9651 11.08 24.4317 11.08ZM28.2888 26.92L27.5288 26.2L27.5688 25.94C27.9554 25.5667 28.2488 25.18 28.4488 24.78C28.6621 24.3933 28.8088 23.92 28.8888 23.36C28.9821 22.8133 29.0288 22.1267 29.0288 21.3V15.58C29.0288 15.1533 28.9821 14.86 28.8888 14.7C28.7954 14.5267 28.6088 14.44 28.3288 14.44C28.1954 14.44 28.0621 14.4533 27.9288 14.48C27.7954 14.4933 27.7288 14.5 27.7288 14.5L27.8688 13.16C28.3221 13.0933 28.7888 13.02 29.2688 12.94C29.7621 12.86 30.2221 12.78 30.6488 12.7C31.0888 12.62 31.4421 12.56 31.7088 12.52C31.9754 12.4667 32.1088 12.44 32.1088 12.44L32.3088 12.82C32.1621 13.1667 32.0421 14.1333 31.9488 15.72C31.8688 17.3067 31.8288 19.4933 31.8288 22.28C31.8288 23.2133 31.5154 24.0933 30.8888 24.92C30.2621 25.7467 29.3954 26.4133 28.2888 26.92ZM30.4688 10.78C29.9488 10.78 29.5488 10.64 29.2688 10.36C28.9888 10.0667 28.8488 9.66 28.8488 9.14C28.8488 8.59333 29.0088 8.16 29.3288 7.84C29.6621 7.50667 30.0954 7.34 30.6288 7.34C31.1221 7.34 31.5088 7.48667 31.7888 7.78C32.0821 8.06 32.2288 8.46 32.2288 8.98C32.2288 9.52667 32.0688 9.96667 31.7488 10.3C31.4288 10.62 31.0021 10.78 30.4688 10.78ZM33.5514 22.22L33.7514 20.72C34.1381 20.6667 34.4247 20.5467 34.6114 20.36C34.7981 20.16 34.8914 19.8733 34.8914 19.5V15.58C34.8914 15.14 34.8247 14.84 34.6914 14.68C34.5714 14.52 34.3381 14.44 33.9914 14.44C33.9247 14.44 33.8314 14.4533 33.7114 14.48C33.5914 14.5067 33.5314 14.52 33.5314 14.52L33.6714 13.14C34.1914 13.0733 34.7047 13 35.2114 12.92C35.7181 12.84 36.1781 12.7667 36.5914 12.7C37.0047 12.62 37.3314 12.56 37.5714 12.52C37.8247 12.4667 37.9514 12.44 37.9514 12.44L38.1714 12.82C38.0914 12.9667 38.0181 13.24 37.9514 13.64C37.8981 14.0267 37.8514 14.5267 37.8114 15.14C37.7714 15.74 37.7381 16.44 37.7114 17.24C37.6981 18.0267 37.6914 18.8867 37.6914 19.82C37.6914 20.1 37.7314 20.3 37.8114 20.42C37.8914 20.5267 38.0381 20.58 38.2514 20.58C38.3581 20.58 38.4714 20.5733 38.5914 20.56C38.7247 20.5467 38.7914 20.54 38.7914 20.54L38.8314 20.62L38.6314 22.08C38.6314 22.08 38.5447 22.0733 38.3714 22.06C38.1981 22.06 37.9847 22.0533 37.7314 22.04C37.4781 22.0267 37.2114 22.0133 36.9314 22C36.6647 22 36.4181 22 36.1914 22C35.8447 22 35.4647 22.0133 35.0514 22.04C34.6381 22.08 34.2847 22.12 33.9914 22.16C33.6981 22.2 33.5514 22.22 33.5514 22.22ZM36.1114 11.08C35.5781 11.08 35.1714 10.9333 34.8914 10.64C34.6247 10.3467 34.4914 9.95333 34.4914 9.46C34.4914 8.91333 34.6514 8.47333 34.9714 8.14C35.3047 7.80667 35.7381 7.64 36.2714 7.64C36.7781 7.64 37.1714 7.78667 37.4514 8.08C37.7314 8.37333 37.8714 8.77333 37.8714 9.28C37.8714 9.82667 37.7114 10.2667 37.3914 10.6C37.0714 10.92 36.6447 11.08 36.1114 11.08ZM45.4484 20.66C45.7418 20.6067 45.9484 20.5 46.0684 20.34C46.2018 20.18 46.2751 19.94 46.2884 19.62L46.3284 16.46C46.3418 15.9 46.2618 15.5 46.0884 15.26C45.9151 15.0067 45.6284 14.88 45.2284 14.88C45.0684 14.88 44.9018 14.9133 44.7284 14.98C44.5551 15.0467 44.3884 15.1267 44.2284 15.22C44.0818 15.3133 43.9551 15.4 43.8484 15.48C43.8351 15.84 43.8151 16.2467 43.7884 16.7C43.7618 17.14 43.7351 17.5733 43.7084 18C43.6818 18.4267 43.6618 18.8 43.6484 19.12C43.6351 19.4267 43.6284 19.64 43.6284 19.76C43.6284 20.0667 43.6684 20.2733 43.7484 20.38C43.8284 20.4867 43.9751 20.54 44.1884 20.54C44.2551 20.54 44.3418 20.54 44.4484 20.54C44.5684 20.5267 44.6284 20.52 44.6284 20.52L44.6684 20.62L44.4484 22.08C44.4484 22.08 44.3151 22.0733 44.0484 22.06C43.7818 22.0467 43.4751 22.0333 43.1284 22.02C42.7818 22.0067 42.4751 22 42.2084 22C41.8351 22 41.4484 22.0067 41.0484 22.02C40.6484 22.0333 40.3084 22.0467 40.0284 22.06C39.7618 22.0867 39.6284 22.1 39.6284 22.1L39.8284 20.64C40.2151 20.6 40.4818 20.5067 40.6284 20.36C40.7751 20.2 40.8484 19.9333 40.8484 19.56V15.68C40.8484 15.2133 40.7818 14.9 40.6484 14.74C40.5151 14.58 40.2618 14.5 39.8884 14.5H39.5884L39.5084 14.38L39.6484 13.12C40.3284 13.0267 40.9818 12.9267 41.6084 12.82C42.2351 12.7133 42.7484 12.6267 43.1484 12.56C43.5618 12.48 43.7684 12.44 43.7684 12.44L43.9884 12.66C43.9884 12.66 43.9551 12.8067 43.8884 13.1C43.8218 13.3933 43.7751 13.7133 43.7484 14.06L43.8484 14.14C44.0218 13.98 44.2218 13.8 44.4484 13.6C44.6751 13.4 44.9018 13.2133 45.1284 13.04C45.3551 12.8667 45.5684 12.7267 45.7684 12.62C45.9818 12.5 46.1418 12.44 46.2484 12.44C47.2618 12.44 48.0351 12.6667 48.5684 13.12C49.1151 13.56 49.3884 14.2 49.3884 15.04C49.3884 15.24 49.3684 15.5533 49.3284 15.98C49.2884 16.3933 49.2418 16.8533 49.1884 17.36C49.1484 17.8533 49.1084 18.32 49.0684 18.76C49.0284 19.1867 49.0084 19.5133 49.0084 19.74C49.0084 20.0467 49.0484 20.2667 49.1284 20.4C49.2218 20.52 49.3751 20.58 49.5884 20.58C49.7084 20.58 49.8284 20.58 49.9484 20.58C50.0818 20.5667 50.1484 20.56 50.1484 20.56L50.1884 20.64L49.9884 22.08C49.9884 22.08 49.9018 22.0733 49.7284 22.06C49.5684 22.06 49.3618 22.0533 49.1084 22.04C48.8551 22.0267 48.5951 22.0133 48.3284 22C48.0618 22 47.8351 22 47.6484 22C47.4618 22 47.2351 22.0067 46.9684 22.02C46.7151 22.0333 46.4551 22.0467 46.1884 22.06C45.9351 22.0733 45.7218 22.0867 45.5484 22.1C45.3884 22.1133 45.3084 22.12 45.3084 22.12L45.4484 20.66ZM59.2147 22.24C57.9614 22.24 57.2614 21.76 57.1147 20.8L56.9747 20.74C56.3747 21.2067 55.8814 21.56 55.4947 21.8C55.108 22.04 54.8614 22.16 54.7547 22.16C53.968 22.16 53.288 21.98 52.7147 21.62C52.1547 21.26 51.7214 20.7467 51.4147 20.08C51.1214 19.4133 50.9747 18.62 50.9747 17.7C50.9747 16.66 51.1814 15.7533 51.5947 14.98C52.0214 14.2067 52.6147 13.6067 53.3747 13.18C54.148 12.74 55.0414 12.52 56.0547 12.52C56.2014 12.52 56.3414 12.52 56.4747 12.52C56.6214 12.52 56.7547 12.5267 56.8747 12.54V10.38C56.8747 9.94 56.8147 9.64 56.6947 9.48C56.5747 9.32 56.3414 9.24 55.9947 9.24C55.9147 9.24 55.8147 9.24667 55.6947 9.26C55.5747 9.27333 55.5147 9.28 55.5147 9.28L55.6747 7.86C56.208 7.79333 56.7347 7.72 57.2547 7.64C57.788 7.56 58.268 7.48667 58.6947 7.42C59.1347 7.34 59.488 7.28 59.7547 7.24C60.0214 7.18667 60.1547 7.16 60.1547 7.16L60.3547 7.54C60.2747 7.66 60.2014 7.94 60.1347 8.38C60.068 8.82 60.008 9.4 59.9547 10.12C59.9014 10.84 59.8547 11.6667 59.8147 12.6C59.7747 13.5333 59.7414 14.5533 59.7147 15.66C59.7014 16.7533 59.6947 17.9 59.6947 19.1C59.6947 19.3267 59.7414 19.5133 59.8347 19.66C59.9414 19.7933 60.0814 19.86 60.2547 19.86C60.388 19.86 60.508 19.84 60.6147 19.8C60.7347 19.7467 60.8347 19.7 60.9147 19.66C60.9947 19.62 61.0347 19.6 61.0347 19.6L61.3547 20.06C61.3547 20.06 61.3014 20.1533 61.1947 20.34C61.088 20.5133 60.9347 20.7333 60.7347 21C60.5347 21.2533 60.3014 21.5 60.0347 21.74C59.7814 21.9667 59.508 22.1333 59.2147 22.24ZM55.6947 20C55.8547 20 56.008 19.98 56.1547 19.94C56.3014 19.8867 56.428 19.8333 56.5347 19.78C56.6414 19.7133 56.7214 19.66 56.7747 19.62C56.8414 19.5667 56.8747 19.54 56.8747 19.54V14.72C56.8747 14.72 56.7614 14.6733 56.5347 14.58C56.308 14.4867 56.0147 14.44 55.6547 14.44C55.1347 14.44 54.7347 14.6533 54.4547 15.08C54.188 15.4933 54.0547 16.1067 54.0547 16.92C54.0547 17.5733 54.1214 18.1333 54.2547 18.6C54.388 19.0533 54.5747 19.4 54.8147 19.64C55.068 19.88 55.3614 20 55.6947 20ZM62.5973 15.36C62.5973 15.04 62.5507 14.8133 62.4573 14.68C62.3773 14.5333 62.2173 14.46 61.9773 14.46C61.8573 14.46 61.7373 14.4667 61.6173 14.48C61.5107 14.4933 61.4573 14.5 61.4573 14.5L61.5973 13.12C62.0773 13.0533 62.5507 12.98 63.0173 12.9C63.484 12.82 63.9107 12.7467 64.2973 12.68C64.6973 12.6133 65.0173 12.56 65.2573 12.52C65.4973 12.4667 65.6173 12.44 65.6173 12.44L65.8373 12.82C65.7707 12.98 65.704 13.2467 65.6373 13.62C65.5707 13.98 65.5107 14.4133 65.4573 14.92C65.404 15.4267 65.364 15.9733 65.3373 16.56C65.3107 17.1467 65.2973 17.7333 65.2973 18.32C65.2973 19.2933 65.6573 19.78 66.3773 19.78C66.5907 19.78 66.8173 19.72 67.0573 19.6C67.2973 19.48 67.5307 19.3533 67.7573 19.22V15.4C67.7573 15.0133 67.704 14.7667 67.5973 14.66C67.504 14.54 67.2907 14.48 66.9573 14.48C66.9173 14.48 66.864 14.48 66.7973 14.48C66.744 14.48 66.704 14.48 66.6773 14.48L66.8773 13.12C67.3573 13.0533 67.8307 12.9867 68.2973 12.92C68.764 12.8533 69.1973 12.7867 69.5973 12.72C69.9973 12.6533 70.3173 12.6 70.5573 12.56C70.7973 12.52 70.9173 12.5 70.9173 12.5L71.1573 12.88C71.0507 13.08 70.9507 13.4867 70.8573 14.1C70.764 14.7133 70.6907 15.46 70.6373 16.34C70.584 17.2067 70.5573 18.1267 70.5573 19.1C70.5573 19.3267 70.6173 19.5133 70.7373 19.66C70.8573 19.7933 71.0173 19.86 71.2173 19.86C71.3507 19.86 71.4773 19.84 71.5973 19.8C71.7307 19.7467 71.8373 19.7 71.9173 19.66C71.9973 19.62 72.0373 19.6 72.0373 19.6L72.3573 20.06C72.3573 20.06 72.2907 20.1533 72.1573 20.34C72.0373 20.5267 71.8707 20.7533 71.6573 21.02C71.444 21.2867 71.204 21.54 70.9373 21.78C70.6707 22.0067 70.3973 22.16 70.1173 22.24C68.824 22.24 68.104 21.74 67.9573 20.74L67.7773 20.64C67.324 21.1067 66.9173 21.4867 66.5573 21.78C66.1973 22.0733 65.944 22.22 65.7973 22.22C64.7173 22.22 63.8907 22 63.3173 21.56C62.744 21.1067 62.4573 20.46 62.4573 19.62L62.5973 15.36ZM76.277 26.92L75.517 26.2L75.557 25.94C75.9437 25.5667 76.237 25.18 76.437 24.78C76.6504 24.3933 76.797 23.92 76.877 23.36C76.9704 22.8133 77.017 22.1267 77.017 21.3V15.58C77.017 15.1533 76.9704 14.86 76.877 14.7C76.7837 14.5267 76.597 14.44 76.317 14.44C76.1837 14.44 76.0504 14.4533 75.917 14.48C75.7837 14.4933 75.717 14.5 75.717 14.5L75.857 13.16C76.3104 13.0933 76.777 13.02 77.257 12.94C77.7504 12.86 78.2104 12.78 78.637 12.7C79.077 12.62 79.4304 12.56 79.697 12.52C79.9637 12.4667 80.097 12.44 80.097 12.44L80.297 12.82C80.1504 13.1667 80.0304 14.1333 79.937 15.72C79.857 17.3067 79.817 19.4933 79.817 22.28C79.817 23.2133 79.5037 24.0933 78.877 24.92C78.2504 25.7467 77.3837 26.4133 76.277 26.92ZM78.457 10.78C77.937 10.78 77.537 10.64 77.257 10.36C76.977 10.0667 76.837 9.66 76.837 9.14C76.837 8.59333 76.997 8.16 77.317 7.84C77.6504 7.50667 78.0837 7.34 78.617 7.34C79.1104 7.34 79.497 7.48667 79.777 7.78C80.0704 8.06 80.217 8.46 80.217 8.98C80.217 9.52667 80.057 9.96667 79.737 10.3C79.417 10.62 78.9904 10.78 78.457 10.78ZM82.4997 15.36C82.4997 15.04 82.453 14.8133 82.3597 14.68C82.2797 14.5333 82.1197 14.46 81.8797 14.46C81.7597 14.46 81.6397 14.4667 81.5197 14.48C81.413 14.4933 81.3597 14.5 81.3597 14.5L81.4997 13.12C81.9797 13.0533 82.453 12.98 82.9197 12.9C83.3864 12.82 83.813 12.7467 84.1997 12.68C84.5997 12.6133 84.9197 12.56 85.1597 12.52C85.3997 12.4667 85.5197 12.44 85.5197 12.44L85.7397 12.82C85.673 12.98 85.6064 13.2467 85.5397 13.62C85.473 13.98 85.413 14.4133 85.3597 14.92C85.3064 15.4267 85.2664 15.9733 85.2397 16.56C85.213 17.1467 85.1997 17.7333 85.1997 18.32C85.1997 19.2933 85.5597 19.78 86.2797 19.78C86.493 19.78 86.7197 19.72 86.9597 19.6C87.1997 19.48 87.433 19.3533 87.6597 19.22V15.4C87.6597 15.0133 87.6064 14.7667 87.4997 14.66C87.4064 14.54 87.193 14.48 86.8597 14.48C86.8197 14.48 86.7664 14.48 86.6997 14.48C86.6464 14.48 86.6064 14.48 86.5797 14.48L86.7797 13.12C87.2597 13.0533 87.733 12.9867 88.1997 12.92C88.6664 12.8533 89.0997 12.7867 89.4997 12.72C89.8997 12.6533 90.2197 12.6 90.4597 12.56C90.6997 12.52 90.8197 12.5 90.8197 12.5L91.0597 12.88C90.953 13.08 90.853 13.4867 90.7597 14.1C90.6664 14.7133 90.593 15.46 90.5397 16.34C90.4864 17.2067 90.4597 18.1267 90.4597 19.1C90.4597 19.3267 90.5197 19.5133 90.6397 19.66C90.7597 19.7933 90.9197 19.86 91.1197 19.86C91.253 19.86 91.3797 19.84 91.4997 19.8C91.633 19.7467 91.7397 19.7 91.8197 19.66C91.8997 19.62 91.9397 19.6 91.9397 19.6L92.2597 20.06C92.2597 20.06 92.193 20.1533 92.0597 20.34C91.9397 20.5267 91.773 20.7533 91.5597 21.02C91.3464 21.2867 91.1064 21.54 90.8397 21.78C90.573 22.0067 90.2997 22.16 90.0197 22.24C88.7264 22.24 88.0064 21.74 87.8597 20.74L87.6797 20.64C87.2264 21.1067 86.8197 21.4867 86.4597 21.78C86.0997 22.0733 85.8464 22.22 85.6997 22.22C84.6197 22.22 83.793 22 83.2197 21.56C82.6464 21.1067 82.3597 20.46 82.3597 19.62L82.4997 15.36ZM92.3563 22.14L92.5363 20.7C92.8163 20.6467 93.0163 20.5733 93.1363 20.48C93.2696 20.3733 93.3563 20.2267 93.3963 20.04C93.4363 19.8533 93.4563 19.6133 93.4563 19.32V10.32C93.4563 9.97333 93.4229 9.72 93.3563 9.56C93.3029 9.4 93.1763 9.3 92.9763 9.26C92.7896 9.20667 92.4963 9.18667 92.0962 9.2L91.9962 9.08L92.1362 7.84C92.9096 7.74667 93.6829 7.64667 94.4563 7.54C95.2296 7.42 96.0029 7.29333 96.7763 7.16L96.9363 7.6C96.8563 7.82667 96.7763 8.18667 96.6963 8.68C96.6296 9.16 96.5696 9.76 96.5163 10.48C96.4629 11.1867 96.4163 12.0133 96.3763 12.96C96.3363 13.8933 96.3096 14.9333 96.2963 16.08C96.2829 17.2267 96.2763 18.4733 96.2763 19.82C96.2763 20.1133 96.3163 20.32 96.3963 20.44C96.4763 20.5467 96.6096 20.6 96.7963 20.6L97.4563 20.58L97.5163 20.7L97.2962 22.08C96.8696 22.0533 96.4163 22.0333 95.9363 22.02C95.4696 22.0067 95.0696 22 94.7363 22C94.4429 22 94.0763 22.0133 93.6363 22.04C93.2096 22.0667 92.7829 22.1 92.3563 22.14ZM98.0045 22.22L98.2045 20.72C98.5912 20.6667 98.8779 20.5467 99.0645 20.36C99.2512 20.16 99.3445 19.8733 99.3445 19.5V15.58C99.3445 15.14 99.2779 14.84 99.1445 14.68C99.0245 14.52 98.7912 14.44 98.4445 14.44C98.3779 14.44 98.2845 14.4533 98.1645 14.48C98.0445 14.5067 97.9845 14.52 97.9845 14.52L98.1245 13.14C98.6445 13.0733 99.1579 13 99.6645 12.92C100.171 12.84 100.631 12.7667 101.045 12.7C101.458 12.62 101.785 12.56 102.025 12.52C102.278 12.4667 102.405 12.44 102.405 12.44L102.625 12.82C102.545 12.9667 102.471 13.24 102.405 13.64C102.351 14.0267 102.305 14.5267 102.265 15.14C102.225 15.74 102.191 16.44 102.165 17.24C102.151 18.0267 102.145 18.8867 102.145 19.82C102.145 20.1 102.185 20.3 102.265 20.42C102.345 20.5267 102.491 20.58 102.705 20.58C102.811 20.58 102.925 20.5733 103.045 20.56C103.178 20.5467 103.245 20.54 103.245 20.54L103.285 20.62L103.085 22.08C103.085 22.08 102.998 22.0733 102.825 22.06C102.651 22.06 102.438 22.0533 102.185 22.04C101.931 22.0267 101.665 22.0133 101.385 22C101.118 22 100.871 22 100.645 22C100.298 22 99.9179 22.0133 99.5045 22.04C99.0912 22.08 98.7379 22.12 98.4445 22.16C98.1512 22.2 98.0045 22.22 98.0045 22.22ZM100.565 11.08C100.031 11.08 99.6245 10.9333 99.3445 10.64C99.0779 10.3467 98.9445 9.95333 98.9445 9.46C98.9445 8.91333 99.1045 8.47333 99.4245 8.14C99.7579 7.80667 100.191 7.64 100.725 7.64C101.231 7.64 101.625 7.78667 101.905 8.08C102.185 8.37333 102.325 8.77333 102.325 9.28C102.325 9.82667 102.165 10.2667 101.845 10.6C101.525 10.92 101.098 11.08 100.565 11.08ZM111.342 22.24C110.728 22.24 110.235 22.1133 109.862 21.86C109.502 21.5933 109.295 21.22 109.242 20.74L109.042 20.66C108.802 20.9 108.542 21.14 108.262 21.38C107.995 21.6067 107.735 21.7933 107.482 21.94C107.242 22.0867 107.022 22.16 106.822 22.16C106.302 22.16 105.822 22.0267 105.382 21.76C104.955 21.48 104.615 21.1067 104.362 20.64C104.122 20.16 104.002 19.6267 104.002 19.04C104.002 18.6133 104.115 18.2467 104.342 17.94C104.568 17.62 104.862 17.42 105.222 17.34L109.102 16.52V16.24C109.102 15.72 108.955 15.32 108.662 15.04C108.368 14.7467 107.955 14.6 107.422 14.6C107.048 14.6 106.642 14.6933 106.202 14.88C105.775 15.0667 105.408 15.2733 105.102 15.5L104.902 15.4L104.482 14.02C104.908 13.7933 105.375 13.56 105.882 13.32C106.388 13.0667 106.868 12.86 107.322 12.7C107.788 12.5267 108.135 12.44 108.362 12.44C109.255 12.44 109.962 12.5733 110.482 12.84C111.015 13.0933 111.395 13.4333 111.622 13.86C111.862 14.2733 111.982 14.7333 111.982 15.24C111.982 15.4133 111.962 15.6733 111.922 16.02C111.882 16.3667 111.835 16.7467 111.782 17.16C111.728 17.56 111.675 17.94 111.622 18.3C111.582 18.6467 111.562 18.9133 111.562 19.1C111.562 19.3267 111.622 19.5133 111.742 19.66C111.862 19.7933 112.022 19.86 112.222 19.86C112.368 19.86 112.522 19.8333 112.682 19.78C112.842 19.7133 112.968 19.6533 113.062 19.6L113.382 20.06C113.222 20.34 113.028 20.64 112.802 20.96C112.575 21.28 112.335 21.56 112.082 21.8C111.828 22.0267 111.582 22.1733 111.342 22.24ZM107.782 19.96C107.955 19.96 108.155 19.9267 108.382 19.86C108.622 19.78 108.835 19.6867 109.022 19.58L109.062 17.78L107.242 18.24C106.948 18.32 106.802 18.5067 106.802 18.8C106.802 19.1333 106.888 19.4133 107.062 19.64C107.248 19.8533 107.488 19.96 107.782 19.96ZM119.745 20.66C120.039 20.6067 120.245 20.5 120.365 20.34C120.499 20.18 120.572 19.94 120.585 19.62L120.625 16.46C120.639 15.9 120.559 15.5 120.385 15.26C120.212 15.0067 119.925 14.88 119.525 14.88C119.365 14.88 119.199 14.9133 119.025 14.98C118.852 15.0467 118.685 15.1267 118.525 15.22C118.379 15.3133 118.252 15.4 118.145 15.48C118.132 15.84 118.112 16.2467 118.085 16.7C118.059 17.14 118.032 17.5733 118.005 18C117.979 18.4267 117.959 18.8 117.945 19.12C117.932 19.4267 117.925 19.64 117.925 19.76C117.925 20.0667 117.965 20.2733 118.045 20.38C118.125 20.4867 118.272 20.54 118.485 20.54C118.552 20.54 118.639 20.54 118.745 20.54C118.865 20.5267 118.925 20.52 118.925 20.52L118.965 20.62L118.745 22.08C118.745 22.08 118.612 22.0733 118.345 22.06C118.079 22.0467 117.772 22.0333 117.425 22.02C117.079 22.0067 116.772 22 116.505 22C116.132 22 115.745 22.0067 115.345 22.02C114.945 22.0333 114.605 22.0467 114.325 22.06C114.059 22.0867 113.925 22.1 113.925 22.1L114.125 20.64C114.512 20.6 114.779 20.5067 114.925 20.36C115.072 20.2 115.145 19.9333 115.145 19.56V15.68C115.145 15.2133 115.079 14.9 114.945 14.74C114.812 14.58 114.559 14.5 114.185 14.5H113.885L113.805 14.38L113.945 13.12C114.625 13.0267 115.279 12.9267 115.905 12.82C116.532 12.7133 117.045 12.6267 117.445 12.56C117.859 12.48 118.065 12.44 118.065 12.44L118.285 12.66C118.285 12.66 118.252 12.8067 118.185 13.1C118.119 13.3933 118.072 13.7133 118.045 14.06L118.145 14.14C118.319 13.98 118.519 13.8 118.745 13.6C118.972 13.4 119.199 13.2133 119.425 13.04C119.652 12.8667 119.865 12.7267 120.065 12.62C120.279 12.5 120.439 12.44 120.545 12.44C121.559 12.44 122.332 12.6667 122.865 13.12C123.412 13.56 123.685 14.2 123.685 15.04C123.685 15.24 123.665 15.5533 123.625 15.98C123.585 16.3933 123.539 16.8533 123.485 17.36C123.445 17.8533 123.405 18.32 123.365 18.76C123.325 19.1867 123.305 19.5133 123.305 19.74C123.305 20.0467 123.345 20.2667 123.425 20.4C123.519 20.52 123.672 20.58 123.885 20.58C124.005 20.58 124.125 20.58 124.245 20.58C124.379 20.5667 124.445 20.56 124.445 20.56L124.485 20.64L124.285 22.08C124.285 22.08 124.199 22.0733 124.025 22.06C123.865 22.06 123.659 22.0533 123.405 22.04C123.152 22.0267 122.892 22.0133 122.625 22C122.359 22 122.132 22 121.945 22C121.759 22 121.532 22.0067 121.265 22.02C121.012 22.0333 120.752 22.0467 120.485 22.06C120.232 22.0733 120.019 22.0867 119.845 22.1C119.685 22.1133 119.605 22.12 119.605 22.12L119.745 20.66Z" fill="black"/>
</svg>
