<svg width="30" height="24" viewBox="0 0 30 24" fill="none" xmlns="http://www.w3.org/2000/svg">
<path d="M30 2.8394C28.8965 3.32141 27.7113 3.64725 26.4652 3.79372C27.737 3.04404 28.7113 1.85608 29.1713 0.442203C27.9632 1.14854 26.6411 1.6458 25.2623 1.91238C24.1403 0.73505 22.5402 0 20.7701 0C17.3723 0 14.6167 2.71147 14.6167 6.05814C14.6167 6.53232 14.671 6.99494 14.7753 7.43909C9.66041 7.18605 5.12575 4.77423 2.09046 1.10946C1.56046 2.0045 1.25709 3.04514 1.25709 4.15546C1.25709 6.25699 2.34371 8.1112 3.99481 9.19735C3.01738 9.16753 2.06141 8.90783 1.20681 8.43994V8.51649C1.20681 11.452 3.32785 13.8997 6.14342 14.4564C5.6262 14.5959 5.08341 14.6688 4.52187 14.6688C4.12484 14.6688 3.73965 14.6318 3.36336 14.5621C4.14653 16.9682 6.41938 18.7195 9.11166 18.769C7.00539 20.3943 4.3514 21.3632 1.46887 21.3632C0.972388 21.3632 0.481706 21.334 0 21.2769C2.72397 22.9963 5.95825 24 9.43385 24C20.7533 24 26.944 14.7687 26.944 6.76324C26.944 6.50042 26.9381 6.23956 26.9252 5.97963C28.1314 5.12084 29.1725 4.0575 30 2.8394Z" fill="black"/>
</svg>
